<?xml version="1.0" encoding="UTF-8"?>
<svg width="649px" height="653px" viewBox="0 0 649 653" version="1.1" xmlns="http://www.w3.org/2000/svg" xmlns:xlink="http://www.w3.org/1999/xlink">
    <title>sphere</title>
    <defs>
        <linearGradient x1="117.440831%" y1="74.0075398%" x2="37.7451593%" y2="113.738816%" id="linearGradient-1">
            <stop stop-color="#05C3EF" offset="0%"></stop>
            <stop stop-color="#FE43BC" offset="100%"></stop>
        </linearGradient>
        <linearGradient x1="131.150996%" y1="98.2123895%" x2="48.4430142%" y2="139.183336%" id="linearGradient-2">
            <stop stop-color="#05C3EF" offset="0%"></stop>
            <stop stop-color="#FE43BC" offset="100%"></stop>
        </linearGradient>
    </defs>
    <g id="Page-1" stroke="none" stroke-width="1" fill="none" fill-rule="evenodd" opacity="0.75">
        <g id="sphere" fill-rule="nonzero">
            <path d="M472.697815,619.844971 C316.167053,697.392334 126.410828,633.363281 48.863617,476.833008 C30.834839,440.441406 20.457855,402.253174 17.117188,364.097168 C16.839478,360.917725 16.609589,357.737793 16.424438,354.55835 C26.200226,311.313965 -25.396851,250.668457 17.891327,222.039307 C30.883667,212.010742 45.118073,255.246094 62.314728,231.856689 C62.95459,228.826416 63.333008,225.773193 63.496796,222.702637 C65.138641,192.000244 45.441559,159.618164 52.615234,127.717529 C53.673187,124.899902 55.143097,122.316406 57.130829,119.984863 C74.461761,104.215088 97.376373,135.966553 118.513855,136.99292 C121.730408,137.712158 124.822876,138.054932 127.789185,137.771729 C130.757507,137.48877 133.599731,136.579346 136.244568,134.669922 C153.55011,126.097168 133.520386,92.916992 159.341309,79.682861 C162.316772,80.294189 165.184387,81.218994 167.940125,82.248535 C178.966125,86.366211 188.22113,92.158447 196.863708,90.270996 C225.678406,83.179688 209.988281,44.257568 216.534302,19.709717 C217.180237,16.554199 218.00116,13.745605 219.058105,11.327637 C220.114014,8.90918 221.400818,6.874512 223.085388,5.441406 C246.184143,-13.186035 271.956238,24.33374 299.099609,32.940674 C302.677307,34.403564 306.127808,35.842285 309.494934,37.27417 C336.433777,48.726807 358.050415,59.695557 363.701233,11.773682 C366.272888,8.197998 369.195435,5.937256 372.161743,4.345703 C407.753357,-14.749756 439.252625,40.278076 476.038513,54.656982 C479.480896,56.410156 482.891724,58.226074 486.271057,60.105957 C540.342102,90.174316 586.167297,136.381104 615.70929,196.011475 C693.25647,352.541016 629.227539,542.29834 472.697815,619.844971 Z" id="Path" fill="url(#linearGradient-1)"></path>
            <path d="M39.12442,84.882568 C32.072845,88.375977 23.523834,85.491455 20.029572,78.439453 C16.536346,71.387695 19.421265,62.839355 26.47287,59.345459 C33.525482,55.852295 42.073456,58.736572 45.566681,65.78833 C49.059937,72.839844 46.176025,81.388916 39.12442,84.882568 Z" id="path1" fill="url(#linearGradient-2)"></path>
        </g>
    </g>
</svg>